<svg width="250" height="250" viewBox="0 0 250 250" fill="none" xmlns="http://www.w3.org/2000/svg">
<g id="icons/empty/background">
<g id="stack" opacity="0.48">
<path id="shape" fill-rule="evenodd" clip-rule="evenodd" d="M44.1463 179.304L47.1789 182.337L50.2213 179.296L51.5213 180.595L48.4784 183.636L51.513 186.669L50.2094 187.972L47.1746 184.94L44.1344 187.981L42.8344 186.681L45.8751 183.641L42.8427 180.607L44.1463 179.304Z" fill="url(#paint0_linear_3600_585)"/>
<path id="shape_2" opacity="0.48" fill-rule="evenodd" clip-rule="evenodd" d="M181.746 26.5991L184.779 29.632L187.821 26.5907L189.121 27.8904L186.078 30.9311L189.113 33.9638L187.809 35.2671L184.774 32.2347L181.734 35.2754L180.434 33.9758L183.475 30.9355L180.442 27.9023L181.746 26.5991Z" fill="#919EAB"/>
<path id="shape_3" opacity="0.72" d="M128.08 218.407C128.65 217.838 129.423 217.518 130.229 217.518C131.035 217.518 131.808 217.838 132.379 218.407L134.544 220.571C134.827 220.853 135.054 221.19 135.207 221.559C135.361 221.929 135.441 222.326 135.441 222.726C135.441 223.127 135.361 223.524 135.207 223.894C135.054 224.263 134.829 224.598 134.545 224.88L132.379 227.046C131.808 227.615 131.035 227.935 130.229 227.935C129.423 227.935 128.65 227.615 128.08 227.046L125.915 224.882C125.632 224.6 125.405 224.263 125.251 223.894C125.098 223.524 125.018 223.127 125.018 222.726C125.018 222.326 125.098 221.929 125.251 221.559C125.405 221.19 125.63 220.855 125.914 220.572L128.08 218.407Z" fill="#919EAB"/>
<path id="shape_4" fill-rule="evenodd" clip-rule="evenodd" d="M201.454 81.3346C201.454 81.3347 201.454 81.3345 201.454 81.3346L199.288 83.4993L198.374 82.5847L199.286 83.5021C199.243 83.5441 199.21 83.5941 199.187 83.6492C199.164 83.7043 199.152 83.7633 199.152 83.8229C199.152 83.8826 199.164 83.9417 199.187 83.9967C199.21 84.0518 199.243 84.1018 199.286 84.1438L199.288 84.1466L201.454 86.3113C201.454 86.3112 201.454 86.3114 201.454 86.3113C201.539 86.3966 201.656 86.4449 201.777 86.4449C201.898 86.4449 202.014 86.397 202.1 86.3118C202.099 86.312 202.1 86.3116 202.1 86.3118L204.268 84.1438C204.31 84.1018 204.344 84.0518 204.367 83.9967C204.39 83.9415 204.402 83.8824 204.402 83.8229C204.402 83.7635 204.39 83.7045 204.367 83.6492C204.344 83.5941 204.31 83.5441 204.268 83.5021L204.265 83.4993L202.1 81.3346C202.1 81.3344 202.1 81.3347 202.1 81.3346C202.014 81.2494 201.898 81.201 201.777 81.201C201.656 81.201 201.539 81.2493 201.454 81.3346ZM197.461 81.669L199.627 79.5033C200.198 78.9342 200.971 78.6146 201.777 78.6146C202.583 78.6146 203.356 78.9342 203.926 79.5033L203.927 79.5044L206.091 81.6674C206.092 81.6679 206.092 81.6684 206.092 81.6689C206.376 81.951 206.601 82.2864 206.755 82.6556C206.909 83.0254 206.988 83.4221 206.988 83.8229C206.988 84.2238 206.909 84.6205 206.755 84.9903C206.601 85.3595 206.376 85.6948 206.093 85.977C206.092 85.9775 206.092 85.978 206.091 85.9785L203.926 88.1426C203.356 88.7117 202.583 89.0313 201.777 89.0313C200.971 89.0313 200.198 88.7117 199.627 88.1426L197.463 85.9785C197.462 85.978 197.461 85.9774 197.461 85.9769C197.177 85.6948 196.952 85.3595 196.799 84.9903C196.645 84.6203 196.566 84.2236 196.566 83.8229C196.566 83.4223 196.645 83.0256 196.799 82.6556C196.952 82.2864 197.177 81.9511 197.461 81.669Z" fill="#919EAB"/>
<path id="shape_5" opacity="0.48" fill-rule="evenodd" clip-rule="evenodd" d="M217.817 138.161C218.128 138.081 218.455 138.079 218.767 138.157C219.11 138.242 219.422 138.418 219.67 138.667C219.919 138.916 220.096 139.228 220.18 139.57C220.258 139.883 220.256 140.209 220.176 140.52L218.977 146.96C218.879 147.466 218.561 148.194 217.754 148.442C216.947 148.69 216.275 148.266 215.912 147.902L210.435 142.428C210.064 142.06 209.641 141.386 209.892 140.578C210.142 139.77 210.872 139.453 211.384 139.359C211.385 139.359 211.385 139.358 211.386 139.358L217.817 138.161ZM217.6 140.737L213.107 141.574L216.763 145.229L217.6 140.737Z" fill="#919EAB"/>
<path id="shape_6" opacity="0.8" fill-rule="evenodd" clip-rule="evenodd" d="M213.458 196.388C213.769 196.307 214.096 196.306 214.409 196.383C214.751 196.468 215.063 196.645 215.311 196.893C215.56 197.142 215.737 197.454 215.822 197.796C215.899 198.109 215.897 198.436 215.817 198.747L214.618 205.187C214.52 205.693 214.202 206.421 213.395 206.669C212.588 206.917 211.916 206.493 211.553 206.129L206.076 200.654C205.705 200.286 205.282 199.612 205.533 198.804C205.783 197.997 206.513 197.679 207.025 197.585C207.026 197.585 207.026 197.585 207.027 197.585L213.458 196.388ZM213.241 198.964L208.748 199.8L212.404 203.455L213.241 198.964Z" fill="#637381"/>
<path id="shape_7" opacity="0.8" fill-rule="evenodd" clip-rule="evenodd" d="M26.0425 150.985C25.6637 150.985 25.2933 151.098 24.9782 151.308C24.663 151.519 24.4176 151.818 24.2728 152.167C24.1279 152.517 24.09 152.902 24.1638 153.273C24.2377 153.645 24.4201 153.986 24.6879 154.253C24.9556 154.521 25.2969 154.703 25.6687 154.777C26.0408 154.851 26.426 154.813 26.7756 154.669C27.1255 154.524 27.4247 154.278 27.6352 153.963C27.8457 153.648 27.9579 153.278 27.9579 152.9C27.9579 152.392 27.7562 151.905 27.3971 151.546C27.038 151.187 26.5507 150.985 26.0425 150.985ZM23.1486 148.569C24.0051 147.997 25.0122 147.691 26.0425 147.691C27.4238 147.691 28.7488 148.24 29.7258 149.217C30.7028 150.193 31.2517 151.518 31.2517 152.9C31.2517 153.93 30.9462 154.937 30.3737 155.793C29.8014 156.65 28.9879 157.318 28.0359 157.712C27.0837 158.106 26.0363 158.209 25.0263 158.008C24.0161 157.807 23.0879 157.311 22.3592 156.583C21.6306 155.854 21.1344 154.926 20.9334 153.916C20.7323 152.906 20.8355 151.858 21.2298 150.906C21.6242 149.954 22.2921 149.141 23.1486 148.569Z" fill="#637381"/>
<path id="shape_8" opacity="0.8" fill-rule="evenodd" clip-rule="evenodd" d="M113.63 38.337C113.251 38.337 112.881 38.4494 112.566 38.6599C112.25 38.8704 112.005 39.1693 111.86 39.5189C111.715 39.8687 111.677 40.2537 111.751 40.6251C111.825 40.9964 112.007 41.3375 112.275 41.6053C112.543 41.8729 112.884 42.0553 113.256 42.1292C113.628 42.2032 114.013 42.1653 114.363 42.0205C114.713 41.8756 115.012 41.6301 115.223 41.315C115.433 41.0002 115.545 40.6301 115.545 40.2516C115.545 39.7439 115.344 39.2569 114.984 38.8978C114.625 38.5388 114.138 38.337 113.63 38.337ZM110.736 35.921C111.592 35.3488 112.6 35.0432 113.63 35.0432C115.011 35.0432 116.336 35.5917 117.313 36.5685C118.29 37.5452 118.839 38.8701 118.839 40.2516C118.839 41.2818 118.534 42.2888 117.961 43.1453C117.389 44.0016 116.575 44.6694 115.623 45.0637C114.671 45.458 113.624 45.5606 112.614 45.3598C111.604 45.1589 110.675 44.6632 109.947 43.9346C109.218 43.2063 108.722 42.2782 108.521 41.2678C108.32 40.2575 108.423 39.2099 108.817 38.2582C109.212 37.3062 109.879 36.4931 110.736 35.921Z" fill="#637381"/>
</g>
</g>
<defs>
<linearGradient id="paint0_linear_3600_585" x1="44.3326" y1="187.996" x2="52.9241" y2="184.627" gradientUnits="userSpaceOnUse">
<stop stop-color="white" stop-opacity="0.16"/>
<stop offset="1" stop-color="white" stop-opacity="0.64"/>
</linearGradient>
</defs>
</svg>
