<svg width="166" height="117" viewBox="0 0 166 117" fill="none" xmlns="http://www.w3.org/2000/svg">
<g id="stack" opacity="0.48">
<path id="shape" d="M8.33301 40.5793H141.666V100.897C141.666 109.663 134.559 116.77 125.793 116.77H24.206C15.4396 116.77 8.33301 109.663 8.33301 100.897V40.5793Z" fill="url(#paint0_linear_3600_570)"/>
<g id="vector">
<path fill-rule="evenodd" clip-rule="evenodd" d="M28.9677 19.9445C26.3007 19.9445 24.2058 22.0394 24.2058 24.7064C24.2058 27.3727 26.3007 29.4682 28.9677 29.4682C31.6347 29.4682 33.7296 27.3727 33.7296 24.7064C33.7296 22.0394 31.6347 19.9445 28.9677 19.9445Z" fill="#C4CDD5"/>
<path fill-rule="evenodd" clip-rule="evenodd" d="M44.047 19.9445C41.3801 19.9445 39.2851 22.0394 39.2851 24.7064C39.2851 27.3727 41.3801 29.4682 44.047 29.4682C46.714 29.4682 48.8089 27.3727 48.8089 24.7064C48.8089 22.0394 46.714 19.9445 44.047 19.9445Z" fill="#C4CDD5"/>
<path fill-rule="evenodd" clip-rule="evenodd" d="M59.1264 19.9445C56.4594 19.9445 54.3645 22.0394 54.3645 24.7064C54.3645 27.3727 56.4594 29.4682 59.1264 29.4682C61.7933 29.4682 63.8882 27.3727 63.8882 24.7064C63.8882 22.0394 61.7933 19.9445 59.1264 19.9445Z" fill="#C4CDD5"/>
</g>
<g id="Subtract" filter="url(#filter0_di_3600_570)">
<path fill-rule="evenodd" clip-rule="evenodd" d="M141.666 21.532V40.5793H8.33301L8.33301 21.5332C8.333 14.5196 14.0187 8.83337 21.0324 8.83337H128.968C135.981 8.83337 141.666 14.5189 141.666 21.532ZM28.9679 19.9445C26.3009 19.9445 24.206 22.0394 24.206 24.7063C24.206 27.3727 26.3009 29.4682 28.9679 29.4682C31.6348 29.4682 33.7298 27.3727 33.7298 24.7063C33.7298 22.0394 31.6348 19.9445 28.9679 19.9445ZM44.0472 19.9445C41.3802 19.9445 39.2853 22.0394 39.2853 24.7063C39.2853 27.3727 41.3802 29.4682 44.0472 29.4682C46.7142 29.4682 48.8091 27.3727 48.8091 24.7063C48.8091 22.0394 46.7142 19.9445 44.0472 19.9445ZM54.3646 24.7063C54.3646 22.0394 56.4595 19.9445 59.1265 19.9445C61.7935 19.9445 63.8884 22.0394 63.8884 24.7063C63.8884 27.3727 61.7935 29.4682 59.1265 29.4682C56.4595 29.4682 54.3646 27.3727 54.3646 24.7063Z" fill="#919EAB"/>
</g>
<path id="shape_2" opacity="0.48" fill-rule="evenodd" clip-rule="evenodd" d="M121.512 50.6252H82.7519C80.6096 50.6252 78.876 52.356 78.876 54.4948V100.93C78.876 103.069 80.6096 104.799 82.7519 104.799H121.512C123.654 104.799 125.387 103.069 125.387 100.93V54.4948C125.387 52.356 123.654 50.6252 121.512 50.6252Z" fill="#637381"/>
<path id="shape_3" opacity="0.24" fill-rule="evenodd" clip-rule="evenodd" d="M28.4885 58.3644H43.9923C46.1347 58.3644 47.8683 56.6337 47.8683 54.4948C47.8683 52.356 46.1347 50.6252 43.9923 50.6252H28.4885C26.3461 50.6252 24.6125 52.356 24.6125 54.4948C24.6125 56.6337 26.3461 58.3644 28.4885 58.3644ZM24.6125 69.9732C24.6125 67.8343 26.3461 66.1036 28.4885 66.1036H67.2481C69.3905 66.1036 71.1241 67.8343 71.1241 69.9732C71.1241 72.112 69.3905 73.8428 67.2481 73.8428H28.4885C26.3461 73.8428 24.6125 72.112 24.6125 69.9732ZM28.4885 81.5819C26.3461 81.5819 24.6125 83.3127 24.6125 85.4515C24.6125 87.5904 26.3461 89.3211 28.4885 89.3211H67.2481C69.3905 89.3211 71.1241 87.5904 71.1241 85.4515C71.1241 83.3127 69.3905 81.5819 67.2481 81.5819H28.4885ZM24.6125 100.93C24.6125 98.791 26.3461 97.0603 28.4885 97.0603H67.2481C69.3905 97.0603 71.1241 98.791 71.1241 100.93C71.1241 103.069 69.3905 104.799 67.2481 104.799H28.4885C26.3461 104.799 24.6125 103.069 24.6125 100.93Z" fill="#637381"/>
</g>
<defs>
<filter id="filter0_di_3600_570" x="0.333008" y="0.833374" width="165.333" height="63.746" filterUnits="userSpaceOnUse" color-interpolation-filters="sRGB">
<feFlood flood-opacity="0" result="BackgroundImageFix"/>
<feColorMatrix in="SourceAlpha" type="matrix" values="0 0 0 0 0 0 0 0 0 0 0 0 0 0 0 0 0 0 127 0" result="hardAlpha"/>
<feOffset dx="8" dy="8"/>
<feGaussianBlur stdDeviation="8"/>
<feColorMatrix type="matrix" values="0 0 0 0 0.270588 0 0 0 0 0.309804 0 0 0 0 0.356863 0 0 0 0.16 0"/>
<feBlend mode="normal" in2="BackgroundImageFix" result="effect1_dropShadow_3600_570"/>
<feBlend mode="normal" in="SourceGraphic" in2="effect1_dropShadow_3600_570" result="shape"/>
<feColorMatrix in="SourceAlpha" type="matrix" values="0 0 0 0 0 0 0 0 0 0 0 0 0 0 0 0 0 0 127 0" result="hardAlpha"/>
<feOffset dx="-2"/>
<feGaussianBlur stdDeviation="2"/>
<feComposite in2="hardAlpha" operator="arithmetic" k2="-1" k3="1"/>
<feColorMatrix type="matrix" values="0 0 0 0 0.270588 0 0 0 0 0.309804 0 0 0 0 0.356863 0 0 0 0.48 0"/>
<feBlend mode="normal" in2="shape" result="effect2_innerShadow_3600_570"/>
</filter>
<linearGradient id="paint0_linear_3600_570" x1="9.98568" y1="86.501" x2="91.2726" y2="148.472" gradientUnits="userSpaceOnUse">
<stop stop-color="white" stop-opacity="0.16"/>
<stop offset="1" stop-color="white" stop-opacity="0.64"/>
</linearGradient>
</defs>
</svg>
