<svg width="25" height="24" viewBox="0 0 25 24" fill="none" xmlns="http://www.w3.org/2000/svg">
<g id="icons/duotone/ic-solar:double-alt-arrow-down-bold-duotone">
<path id="secondary-shape" opacity="0.5" d="M5.20002 6.25C5.04666 6.24989 4.89694 6.29679 4.77106 6.38439C4.64518 6.47199 4.54918 6.59608 4.496 6.73993C4.44282 6.88378 4.43501 7.04047 4.47364 7.18889C4.51227 7.33731 4.59546 7.47033 4.71202 7.57L11.712 13.57C11.992 13.81 12.407 13.81 12.688 13.57L19.688 7.57C19.8046 7.47033 19.8878 7.33731 19.9264 7.18889C19.965 7.04047 19.9572 6.88378 19.904 6.73993C19.8509 6.59608 19.7549 6.47199 19.629 6.38439C19.5031 6.29679 19.3534 6.24989 19.2 6.25H5.20002Z" fill="url(#paint0_linear_3599_901)"/>
<path id="primary-shape" fill-rule="evenodd" clip-rule="evenodd" d="M4.63001 10.512C4.69414 10.4372 4.77238 10.3757 4.86027 10.3312C4.94816 10.2866 5.04397 10.2598 5.14222 10.2522C5.24048 10.2447 5.33925 10.2566 5.4329 10.2873C5.52655 10.318 5.61324 10.3668 5.68801 10.431L12.2 16.012L18.712 10.431C18.7867 10.3661 18.8735 10.3167 18.9673 10.2855C19.0612 10.2543 19.1603 10.242 19.259 10.2492C19.3576 10.2565 19.4539 10.2832 19.5421 10.3278C19.6304 10.3724 19.709 10.4341 19.7734 10.5092C19.8377 10.5843 19.8866 10.6714 19.9172 10.7655C19.9477 10.8596 19.9594 10.9588 19.9514 11.0574C19.9435 11.156 19.9161 11.252 19.8709 11.34C19.8257 11.428 19.7636 11.5061 19.688 11.57L12.688 17.57C12.5521 17.6865 12.379 17.7505 12.2 17.7505C12.021 17.7505 11.8479 17.6865 11.712 17.57L4.71201 11.57C4.63719 11.5059 4.57573 11.4276 4.53116 11.3397C4.4866 11.2518 4.45978 11.156 4.45226 11.0578C4.44474 10.9595 4.45665 10.8607 4.48732 10.7671C4.51799 10.6735 4.56682 10.5868 4.63101 10.512H4.63001Z" fill="url(#paint1_linear_3599_901)"/>
</g>
<defs>
<linearGradient id="paint0_linear_3599_901" x1="4.44946" y1="6.25" x2="10.3303" y2="18.4046" gradientUnits="userSpaceOnUse">
<stop stop-color="#FFAC82"/>
<stop offset="1" stop-color="#FF5630"/>
</linearGradient>
<linearGradient id="paint1_linear_3599_901" x1="4.45007" y1="10.2472" x2="10.3345" y2="22.4059" gradientUnits="userSpaceOnUse">
<stop stop-color="#FFAC82"/>
<stop offset="1" stop-color="#FF5630"/>
</linearGradient>
</defs>
</svg>
