<svg width="25" height="24" viewBox="0 0 25 24" fill="none" xmlns="http://www.w3.org/2000/svg">
<g id="icons/duotone/ic-solar:double-alt-arrow-up-bold-duotone">
<path id="secondary-shape" opacity="0.5" d="M5.60001 17.75C5.44665 17.7501 5.29694 17.7032 5.17106 17.6156C5.04517 17.528 4.94917 17.4039 4.89599 17.2601C4.84281 17.1162 4.83501 16.9595 4.87363 16.8111C4.91226 16.6627 4.99546 16.5297 5.11201 16.43L12.112 10.43C12.2479 10.3135 12.421 10.2495 12.6 10.2495C12.779 10.2495 12.9521 10.3135 13.088 10.43L20.088 16.43C20.2046 16.5297 20.2878 16.6627 20.3264 16.8111C20.365 16.9595 20.3572 17.1162 20.304 17.2601C20.2509 17.4039 20.1549 17.528 20.029 17.6156C19.9031 17.7032 19.7534 17.7501 19.6 17.75H5.60001Z" fill="url(#paint0_linear_3599_886)"/>
<path id="primary-shape" fill-rule="evenodd" clip-rule="evenodd" d="M5.03 13.488C5.09413 13.5628 5.17237 13.6243 5.26026 13.6688C5.34815 13.7134 5.44396 13.7402 5.54221 13.7477C5.64047 13.7553 5.73924 13.7434 5.83289 13.7127C5.92654 13.682 6.01323 13.6332 6.088 13.569L12.6 7.988L19.112 13.569C19.1861 13.6369 19.2732 13.6892 19.368 13.7228C19.4627 13.7564 19.5633 13.7706 19.6636 13.7645C19.764 13.7585 19.8621 13.7323 19.9522 13.6876C20.0422 13.6428 20.1224 13.5805 20.1878 13.5041C20.2533 13.4278 20.3027 13.3391 20.3332 13.2433C20.3637 13.1475 20.3746 13.0465 20.3653 12.9464C20.356 12.8463 20.3266 12.7491 20.279 12.6605C20.2314 12.572 20.1664 12.4939 20.088 12.431L13.088 6.431C12.9521 6.31453 12.779 6.25052 12.6 6.25052C12.421 6.25052 12.2479 6.31453 12.112 6.431L5.112 12.431C4.96118 12.5605 4.86794 12.7445 4.85275 12.9427C4.83756 13.1409 4.90167 13.337 5.031 13.488H5.03Z" fill="url(#paint1_linear_3599_886)"/>
</g>
<defs>
<linearGradient id="paint0_linear_3599_886" x1="7.3152" y1="6.92609" x2="10.5187" y2="25.2372" gradientUnits="userSpaceOnUse">
<stop stop-color="#1FC583"/>
<stop offset="1" stop-color="#1F9285"/>
</linearGradient>
<linearGradient id="paint1_linear_3599_886" x1="7.31897" y1="2.92049" x2="10.5315" y2="21.2669" gradientUnits="userSpaceOnUse">
<stop stop-color="#1FC583"/>
<stop offset="1" stop-color="#1F9285"/>
</linearGradient>
</defs>
</svg>
