<svg xmlns="http://www.w3.org/2000/svg" width="83" height="32" viewBox="0 0 83 32" fill="none">
  <path d="M77.1798 12.7149C78.2129 12.9264 78.9853 13.9497 78.7418 15.0763C78.5376 16.016 77.6595 16.658 76.6977 16.658H66.814V20.6405H76.7813C76.8108 20.6405 76.8379 20.6405 76.8649 20.638C78.9459 20.5027 80.5866 18.7735 80.5866 16.658C80.5866 14.6532 79.1083 12.9929 77.1798 12.7149ZM76.5993 12.6706C76.5648 12.6706 76.5304 12.6706 76.4984 12.6731H76.7026C76.6681 12.6706 76.6337 12.6706 76.5993 12.6706Z" fill="white"/>
  <path d="M47.2412 9.80736V24.6254H43.2365V14.3777L46.5204 9.58844C46.5204 9.58844 46.5229 9.58352 46.5253 9.58106C46.5401 9.56138 46.5549 9.5417 46.5745 9.52448C46.6409 9.46052 46.732 9.41871 46.8328 9.41379H46.8648C46.9902 9.41871 47.1009 9.48512 47.1698 9.58106C47.1723 9.58352 47.1747 9.58598 47.1747 9.58844C47.2166 9.65239 47.2412 9.72619 47.2412 9.80736Z" fill="white"/>
  <path d="M41.5663 16.0086H36.9812C36.6614 16.0086 36.3736 15.8659 36.1817 15.6396L35.311 14.5278V9.80983C35.311 9.5909 35.4881 9.41625 35.7045 9.41625C35.8374 9.41625 35.9554 9.48267 36.0268 9.58352C36.0292 9.58598 36.0317 9.58844 36.0317 9.5909L39.2762 13.7308L40.7004 15.5486C40.7226 15.5806 40.7447 15.6101 40.7693 15.6396C40.9612 15.8659 41.249 16.0086 41.5688 16.0086H41.5663Z" fill="white"/>
  <path d="M46.8328 9.41379C46.7319 9.41871 46.6409 9.46052 46.5745 9.52448C46.5548 9.5417 46.5401 9.56138 46.5253 9.58106C46.5228 9.58352 46.5204 9.58598 46.5204 9.58844L43.2365 14.3777L42.4346 15.5486C42.4125 15.5806 42.3903 15.6101 42.3633 15.6396C42.1739 15.8659 41.8861 16.0086 41.5663 16.0086C41.2465 16.0086 40.9587 15.8659 40.7668 15.6396C40.7422 15.6101 40.7201 15.5806 40.698 15.5486L39.2737 13.7308L42.5158 9.5909C42.5158 9.5909 42.5182 9.58598 42.5207 9.58352C42.592 9.48266 42.7101 9.41625 42.8429 9.41625H46.6385L46.8328 9.41379Z" fill="white"/>
  <path d="M23.0634 15.2879C23.0093 15.5757 22.9478 15.861 22.8715 16.1414C22.1705 18.7956 20.5396 21.0759 18.3454 22.6059C17.2951 23.3389 16.1242 23.8948 14.8894 24.2417C14.2498 24.4212 13.593 24.5442 12.9313 24.6082C12.218 24.6795 11.485 24.6229 10.7642 24.6451C9.44822 24.682 8.19617 24.8296 6.94657 25.2625C5.84949 25.6438 4.81143 26.1948 3.87669 26.8885C2.7673 27.7125 1.88669 28.7186 1.09954 29.8452C0.659229 30.5167 0.290261 31.235 0 31.9951C0.415712 29.8821 1.13398 27.8749 2.10562 26.0251C2.113 26.0078 2.12283 25.9906 2.13021 25.9734C2.30978 25.6315 2.49918 25.292 2.69597 24.9599C2.70335 24.9452 2.7132 24.9329 2.72058 24.9206C3.33062 23.9662 4.09316 23.12 4.97132 22.414C5.96017 21.617 7.09171 20.9996 8.30194 20.606C9.65731 20.1657 11.0668 20.1165 12.4763 19.9985C14.4687 19.8312 16.4957 19.2433 18.3504 18.5127C18.3577 18.5127 18.3651 18.5078 18.3701 18.5029C18.7587 18.3627 19.1424 18.2003 19.509 18.0183C20.8668 17.3517 22.0746 16.4169 23.0585 15.2879H23.0634Z" fill="white"/>
  <path d="M33.6948 0C33.6948 0 33.6923 0.0172188 33.6899 0.0270582C33.6185 0.405873 33.5349 0.784688 33.439 1.15366C32.487 4.75486 30.2732 7.84442 27.3017 9.91806C25.7643 10.9881 24.035 11.7826 22.2148 12.2377C20.1559 12.7542 18.0257 12.6091 15.9225 12.7616C11.0471 13.1109 6.60709 15.6052 3.92341 19.7279C3.32813 20.6429 2.82386 21.6244 2.43029 22.66C3.01081 19.7082 4.01935 16.9138 5.39194 14.3384C5.59365 13.962 5.80273 13.5906 6.0192 13.2241C6.86538 11.8638 7.93295 10.6535 9.17517 9.6524C10.4666 8.61434 11.9326 7.8026 13.4995 7.26881C15.7528 6.50135 18.1216 6.58744 20.4437 6.2283C22.7928 5.86425 25.1001 5.23945 27.3115 4.36867C27.3189 4.36375 27.3287 4.35883 27.3386 4.35637C27.9044 4.1522 28.4578 3.91606 28.9916 3.64794C30.7897 2.74518 32.3886 1.5005 33.6948 0Z" fill="white"/>
  <path d="M33.6948 0C33.6948 0 33.6923 0.0172188 33.6899 0.0270582C32.4747 2.57053 30.802 4.75978 28.8071 6.43001C27.1762 7.79522 25.3437 8.80621 23.4152 9.38673C21.2308 10.046 18.9702 9.85902 16.7392 10.0509C11.5686 10.4961 6.86045 13.6742 4.01442 18.9235C3.38225 20.0919 2.846 21.3415 2.43029 22.66C3.01081 19.7082 4.01935 16.9138 5.39194 14.3384C5.59365 13.962 5.80273 13.5906 6.0192 13.2241C6.86538 11.8638 7.93295 10.6535 9.17517 9.6524C10.4666 8.61434 11.9326 7.8026 13.4995 7.26881C15.7528 6.50135 18.1216 6.58744 20.4437 6.2283C22.7928 5.86425 25.1001 5.23945 27.3115 4.36867C27.3189 4.36375 27.3287 4.35883 27.3386 4.35637C27.9044 4.1522 28.4578 3.91606 28.9916 3.64794C30.7897 2.74518 32.3886 1.5005 33.6948 0Z" fill="white"/>
  <path d="M23.0634 15.2879C23.0634 15.2879 23.0634 15.3002 23.061 15.3076C22.1656 17.1844 20.9307 18.7981 19.4598 20.0304C18.2569 21.0365 16.9065 21.7819 15.4822 22.2123C13.871 22.6994 12.2033 22.5616 10.5576 22.7018C6.74488 23.029 3.27158 25.3732 1.17334 29.245C0.705974 30.1059 0.3124 31.0284 0.00492096 32C0.432932 29.8231 1.1758 27.7617 2.18926 25.8627C2.33685 25.5848 2.49182 25.3117 2.65171 25.0411C3.2765 24.0375 4.06366 23.1446 4.97872 22.4066C5.93067 21.6416 7.01299 21.0414 8.16912 20.6479C9.83196 20.0821 11.5784 20.1461 13.2905 19.8804C15.0222 19.6123 16.7244 19.1498 18.3553 18.5078C18.3602 18.5053 18.3676 18.5004 18.375 18.498C18.7931 18.3479 19.2015 18.1733 19.5951 17.9765C20.9209 17.3099 22.1016 16.3923 23.0634 15.2854V15.2879Z" fill="white"/>
  <path d="M60.9055 18.5742H60.9104C62.0912 18.156 62.9349 17.0294 62.9349 15.7085C62.9349 14.0284 61.5721 12.6657 59.8921 12.6657C59.8281 12.6657 59.7617 12.6682 59.6978 12.6731H59.9609C60.3939 12.6731 60.8022 12.9191 60.9646 13.32C61.2352 13.994 60.6792 14.6557 60.0323 14.6557H53.0685C50.8571 14.6557 49.0639 16.4489 49.0639 18.6603V24.6254H53.0685V18.6382H56.0916L60.2635 24.6254H65.102L60.9055 18.5742Z" fill="white"/>
  <path d="M64.8437 12.3853C65.6136 15.2584 63.69 18.0945 60.9104 18.5742C62.0912 18.156 62.9349 17.0294 62.9349 15.7085C62.9349 14.0284 61.5721 12.6657 59.8921 12.6657C59.8281 12.6657 59.7617 12.6681 59.6978 12.6731H53.0685C50.8571 12.6731 49.0639 10.8798 49.0639 8.66846H59.8749C62.1723 8.66846 64.2509 10.1665 64.8462 12.3853H64.8437Z" fill="white"/>
  <path d="M82.7685 14.6877C82.7513 17.9273 80.0996 20.5962 76.8649 20.638C78.9459 20.5027 80.5866 18.7735 80.5866 16.658C80.5866 14.6532 79.1083 12.9929 77.1798 12.7149C77.1724 12.7124 77.1675 12.71 77.1601 12.71C77.0371 12.6854 76.9092 12.6731 76.7813 12.6731H76.7026C76.6681 12.6706 76.6337 12.6706 76.5993 12.6706C76.5648 12.6706 76.5304 12.6706 76.4984 12.6731H66.814V8.69061H76.6632C79.9619 8.69061 82.7857 11.389 82.7685 14.6877Z" fill="white"/>
  <path d="M53.0685 18.6382V24.6254H49.0639V22.6428C49.0639 20.4314 50.8571 18.6382 53.0685 18.6382Z" fill="white"/>
  <path d="M35.7021 9.41625C35.4856 9.41625 35.3085 9.5909 35.3085 9.80983V24.6254H31.3039V9.80245C31.3039 9.78031 31.3063 9.76063 31.3088 9.73849C31.3088 9.73603 31.3088 9.73357 31.3113 9.73111C31.326 9.65732 31.3629 9.58598 31.4195 9.52941C31.4908 9.45807 31.5794 9.42117 31.6728 9.41625H35.7021Z" fill="white"/>
  <path d="M70.7965 12.6731H66.814V24.6254H70.7965V12.6731Z" fill="white"/>
  <path d="M25.7544 24.6254C25.6929 24.6205 25.6339 24.6131 25.5773 24.6033C24.8517 24.4877 24.2342 24.0449 23.8874 23.4275C23.8136 23.2996 23.7521 23.1618 23.7054 23.0192C23.6439 22.842 23.6045 22.6526 23.5898 22.4608C24.7828 22.4657 25.7495 23.4349 25.7569 24.6254H25.7544Z" fill="white"/>
  <path d="M24.9624 22.0057C24.9624 22.173 24.9771 22.3378 25.0116 22.5001C24.8468 22.3894 24.6696 22.2984 24.4827 22.2271C24.4409 21.9663 24.4433 21.7007 24.495 21.4375C24.6672 21.4818 24.8345 21.5457 24.9894 21.6318C24.9697 21.7548 24.9624 21.8778 24.9624 22.0057Z" fill="white"/>
  <path d="M26.2611 23.1003C26.2193 23.1717 26.1701 23.243 26.1209 23.3119C26.0717 23.3783 26.0176 23.4422 25.9586 23.5037C25.5748 23.1028 25.3584 22.5665 25.3584 22.0057C25.3584 21.4449 25.5748 20.9086 25.9586 20.5077C26.3423 20.9111 26.5588 21.4473 26.5588 22.0057C26.5588 22.3944 26.4554 22.7707 26.2636 23.1003H26.2611Z" fill="white"/>
  <path d="M26.9523 22.0057C26.9523 21.8803 26.9425 21.7548 26.9253 21.6318C27.0803 21.5482 27.2475 21.4842 27.4197 21.4399C27.4714 21.7007 27.4738 21.9663 27.432 22.2246C27.2451 22.2935 27.068 22.3845 26.9056 22.4928C26.9376 22.3329 26.9523 22.1705 26.9523 22.0057Z" fill="white"/>
  <path d="M26.089 20.0846L25.9586 19.9689L25.8283 20.0846C25.4765 20.397 25.2231 20.7955 25.0829 21.2358C24.864 21.13 24.6279 21.0537 24.3819 21.0144L24.2097 20.9849L24.1605 21.1521C24.0695 21.467 24.04 21.7917 24.0695 22.109C23.9145 22.0795 23.7521 22.0647 23.5898 22.0623C23.6907 20.8446 24.709 19.8878 25.9537 19.8878C27.1984 19.8878 28.2168 20.8446 28.3176 22.0623C28.1577 22.0623 28.0003 22.077 27.8502 22.1065C27.8798 21.7892 27.8502 21.4645 27.7592 21.1497L27.71 20.9824L27.5378 21.0119C27.2918 21.0513 27.0557 21.1275 26.8368 21.2333C26.699 20.793 26.4432 20.3945 26.0914 20.0821L26.089 20.0846Z" fill="white"/>
  <path d="M28.3151 22.4583C28.3004 22.6526 28.261 22.8396 28.1995 23.0167C28.1528 23.1594 28.0913 23.2971 28.0175 23.4275C27.6707 24.04 27.0606 24.4828 26.3423 24.6008C26.2784 24.6107 26.2144 24.6205 26.1505 24.6254C26.1505 24.2269 26.2612 23.853 26.453 23.5333C26.4924 23.4644 26.5367 23.398 26.5859 23.3316C26.9794 22.8052 27.6092 22.4632 28.3151 22.4608V22.4583Z" fill="white"/>
  <path d="M26.1209 23.3119C26.1726 23.2455 26.2193 23.1741 26.2611 23.1003C26.2095 23.1667 26.1628 23.2381 26.1209 23.3119Z" fill="white"/>
  <path d="M26.4505 23.5308C26.4973 23.4668 26.5415 23.4004 26.5833 23.3291C26.5341 23.393 26.4899 23.4595 26.4505 23.5308Z" fill="white"/>
</svg>