<svg xmlns="http://www.w3.org/2000/svg" width="20" height="20" viewBox="0 0 20 20" fill="none">
  <g opacity="0.9">
    <g opacity="0.9">
      <path fill-rule="evenodd" clip-rule="evenodd" d="M10 1.875C10 1.875 11.6526 1.875 13.1628 2.51376C13.1628 2.51376 14.621 3.13053 15.7452 4.25476C15.7452 4.25476 16.8695 5.37899 17.4862 6.83719C17.4862 6.83719 18.125 8.34739 18.125 10C18.125 10 18.125 11.6526 17.4862 13.1628C17.4862 13.1628 16.8695 14.621 15.7452 15.7452C15.7452 15.7452 14.621 16.8695 13.1628 17.4862C13.1628 17.4862 11.6526 18.125 10 18.125C10 18.125 8.34739 18.125 6.83719 17.4862C6.83719 17.4862 5.37899 16.8695 4.25476 15.7452C4.25476 15.7452 3.13053 14.621 2.51376 13.1628C2.51376 13.1628 1.875 11.6526 1.875 10C1.875 10 1.875 8.34739 2.51376 6.83719C2.51376 6.83719 3.13053 5.37899 4.25476 4.25476C4.25476 4.25476 5.37899 3.13053 6.83719 2.51376C6.83719 2.51376 8.34739 1.875 10 1.875ZM10 3.125C10 3.125 8.60087 3.125 7.32413 3.66501C7.32413 3.66501 6.09047 4.18681 5.13864 5.13864C5.13864 5.13864 4.18681 6.09047 3.66502 7.32413C3.66502 7.32413 3.125 8.60087 3.125 10C3.125 10 3.125 11.3991 3.66502 12.6759C3.66502 12.6759 4.18681 13.9095 5.13864 14.8614C5.13864 14.8614 6.09047 15.8132 7.32413 16.335C7.32413 16.335 8.60087 16.875 10 16.875C10 16.875 11.3991 16.875 12.6759 16.335C12.6759 16.335 13.9095 15.8132 14.8614 14.8614C14.8614 14.8614 15.8132 13.9095 16.335 12.6759C16.335 12.6759 16.875 11.3991 16.875 10C16.875 10 16.875 8.60087 16.335 7.32413C16.335 7.32413 15.8132 6.09047 14.8614 5.13864C14.8614 5.13864 13.9095 4.18681 12.6759 3.66501C12.6759 3.66501 11.3991 3.125 10 3.125Z" fill="white"/>
      <path d="M10.9375 14.0625C10.9375 14.5803 10.5177 15 10 15C9.48227 15 9.0625 14.5803 9.0625 14.0625C9.0625 13.5447 9.48227 13.125 10 13.125C10.5177 13.125 10.9375 13.5447 10.9375 14.0625Z" fill="white"/>
      <path d="M7.66149 6.87498C7.1875 7.58436 7.1875 8.43752 7.1875 8.43752C7.1875 8.7827 7.46732 9.06252 7.8125 9.06252C8.15768 9.06252 8.4375 8.7827 8.4375 8.43752C8.4375 7.96354 8.70083 7.56945 8.70083 7.56945C8.96416 7.17535 9.40206 6.99396 9.40206 6.99396C9.83996 6.81258 10.3048 6.90505 10.3048 6.90505C10.7697 6.99752 11.1049 7.33267 11.1049 7.33267C11.44 7.66782 11.5325 8.1327 11.5325 8.1327C11.6249 8.59757 11.4436 9.03547 11.4436 9.03547C11.2622 9.47337 10.8681 9.73669 10.8681 9.73669C10.474 10 10 10 10 10C9.65482 10 9.375 10.2798 9.375 10.625V11.25C9.375 11.5952 9.65482 11.875 10 11.875C10.3452 11.875 10.625 11.5952 10.625 11.25V11.1822C11.1216 11.0707 11.5625 10.776 11.5625 10.776C12.2719 10.302 12.5984 9.51382 12.5984 9.51382C12.9249 8.7256 12.7585 7.88883 12.7585 7.88883C12.592 7.05206 11.9887 6.44879 11.9887 6.44879C11.3855 5.84551 10.5487 5.67906 10.5487 5.67906C9.71192 5.51262 8.9237 5.83911 8.9237 5.83911C8.13548 6.1656 7.66149 6.87498 7.66149 6.87498Z" fill="white"/>
    </g>
  </g>
</svg>